# xmcd CD database file
#
# Track frame offsets:
#	150
#	22326
#	47284
#	63769
#	80944
#	97572
#	122317
#	139741
#	148246
#	173030
#	187230
#	205179
#	213689
#	232654
#	243749
#	264200
#
# Disc length: 3715 seconds
#
# Revision: 3
# Processed by: cddbd v1.5.2PL0 Copyright (c) Steve Scherf et al.
# Submitted via: CDex 1.70beta2
#
DISCID=df0e8110
DTITLE=Cäsar - 30 Jahre mit Peter "Cäsar" Gläser - Gläserklirren
DYEAR=1996
DGENRE=DDR-Blues
TTITLE0=Geht es dir gut (Cäsar Trio 1996)
TTITLE1=Cäsars Blues (Renft 1973)
TTITLE2=Steig ein (Cäsar's  Rockband 1983)
TTITLE3=Lieb ein Mädchen (Karussell 1980)
TTITLE4=Besinnung (Renft 1972)
TTITLE5=Halleluja (Cäsar Trio 1995)
TTITLE6=Wolken ziehen hin (Cäsar's Rockband 1983)
TTITLE7=Sehnsucht (Cäsar 1972)
TTITLE8=Mein Bruder Blues (Karussell 1982)
TTITLE9=Tanzen (Karussell 1979)
TTITLE10=Katzenjammerreggae (Cäsar's Rockband 1984)
TTITLE11=Wiegenlied für Susann' (Renft 1974)
TTITLE12=Männerfantasie (Cäsar's Rockband 1984)
TTITLE13=Gelber Mond (Karussell 1982)
TTITLE14=Im Bauch des Riesen (Cäsar's Rockband 1983)
TTITLE15=Wer die Rose ehrt (Renft 1971)
EXTD=YEAR: 1996
EXTT0=
EXTT1=
EXTT2=
EXTT3=
EXTT4=
EXTT5=
EXTT6=
EXTT7=
EXTT8=
EXTT9=
EXTT10=
EXTT11=
EXTT12=
EXTT13=
EXTT14=
EXTT15=
PLAYORDER=
